<svg width="104" height="24" viewBox="0 0 104 24" fill="none" xmlns="http://www.w3.org/2000/svg">
<path d="M10.3072 7.21986C10.9493 5.61918 11.2704 4.81883 11.7919 4.70791C11.9291 4.67874 12.0708 4.67874 12.208 4.70791C12.7295 4.81883 13.0506 5.61918 13.6927 7.21986C14.0578 8.13014 14.2404 8.58528 14.582 8.89485C14.6778 8.98168 14.7818 9.05901 14.8926 9.12576C15.2874 9.36374 15.7803 9.40788 16.7661 9.49617C18.4348 9.64562 19.2692 9.72034 19.524 10.1961C19.5768 10.2946 19.6127 10.4013 19.6302 10.5117C19.7146 11.0447 19.1012 11.6028 17.8744 12.7189L17.5338 13.0288C16.9602 13.5506 16.6735 13.8115 16.5076 14.1372C16.4081 14.3325 16.3414 14.5428 16.3101 14.7598C16.258 15.1215 16.342 15.5 16.5099 16.2569L16.5699 16.5274C16.8711 17.8849 17.0217 18.5637 16.8337 18.8973C16.6649 19.197 16.3538 19.3889 16.0102 19.4053C15.6277 19.4236 15.0887 18.9844 14.0107 18.106C13.3005 17.5273 12.9454 17.2379 12.5512 17.1249C12.191 17.0216 11.8089 17.0216 11.4487 17.1249C11.0545 17.2379 10.6994 17.5273 9.98917 18.106C8.91119 18.9844 8.37221 19.4236 7.98968 19.4053C7.64609 19.3889 7.33504 19.197 7.16617 18.8973C6.97818 18.5637 7.12878 17.8849 7.42997 16.5274L7.48998 16.2569C7.65794 15.5 7.74191 15.1215 7.6898 14.7598C7.65854 14.5428 7.59182 14.3325 7.49232 14.1372C7.32645 13.8115 7.03968 13.5506 6.46613 13.0288L6.12546 12.7189C4.89867 11.6028 4.28527 11.0447 4.36975 10.5117C4.38724 10.4013 4.42312 10.2946 4.47589 10.1961C4.73069 9.72034 5.56507 9.64562 7.23384 9.49617C8.21962 9.40788 8.71251 9.36374 9.10735 9.12576C9.2181 9.05901 9.32211 8.98168 9.41793 8.89485C9.75954 8.58528 9.94211 8.13014 10.3072 7.21986Z" fill="#3CA371" stroke="#3CA371" stroke-width="2"/>
<path d="M30.3072 7.21986C30.9493 5.61918 31.2704 4.81883 31.7919 4.70791C31.9291 4.67874 32.0708 4.67874 32.208 4.70791C32.7295 4.81883 33.0506 5.61918 33.6927 7.21986C34.0578 8.13014 34.2404 8.58528 34.582 8.89485C34.6778 8.98168 34.7818 9.05901 34.8926 9.12576C35.2874 9.36374 35.7803 9.40788 36.7661 9.49617C38.4348 9.64562 39.2692 9.72034 39.524 10.1961C39.5768 10.2946 39.6127 10.4013 39.6302 10.5117C39.7146 11.0447 39.1012 11.6028 37.8744 12.7189L37.5338 13.0288C36.9602 13.5506 36.6735 13.8115 36.5076 14.1372C36.4081 14.3325 36.3414 14.5428 36.3101 14.7598C36.258 15.1215 36.342 15.5 36.5099 16.2569L36.5699 16.5274C36.8711 17.8849 37.0217 18.5637 36.8337 18.8973C36.6649 19.197 36.3538 19.3889 36.0102 19.4053C35.6277 19.4236 35.0887 18.9844 34.0107 18.106C33.3005 17.5273 32.9454 17.2379 32.5512 17.1249C32.191 17.0216 31.8089 17.0216 31.4487 17.1249C31.0545 17.2379 30.6994 17.5273 29.9892 18.106C28.9112 18.9844 28.3722 19.4236 27.9897 19.4053C27.6461 19.3889 27.335 19.197 27.1662 18.8973C26.9782 18.5637 27.1288 17.8849 27.43 16.5274L27.49 16.2569C27.6579 15.5 27.7419 15.1215 27.6898 14.7598C27.6585 14.5428 27.5918 14.3325 27.4923 14.1372C27.3264 13.8115 27.0397 13.5506 26.4661 13.0288L26.1255 12.7189C24.8987 11.6028 24.2853 11.0447 24.3697 10.5117C24.3872 10.4013 24.4231 10.2946 24.4759 10.1961C24.7307 9.72034 25.5651 9.64562 27.2338 9.49617C28.2196 9.40788 28.7125 9.36374 29.1074 9.12576C29.2181 9.05901 29.3221 8.98168 29.4179 8.89485C29.7595 8.58528 29.9421 8.13014 30.3072 7.21986Z" fill="#3CA371" stroke="#3CA371" stroke-width="2"/>
<path d="M50.3072 7.21986C50.9493 5.61918 51.2704 4.81883 51.7919 4.70791C51.9291 4.67874 52.0708 4.67874 52.208 4.70791C52.7295 4.81883 53.0506 5.61918 53.6927 7.21986C54.0578 8.13014 54.2404 8.58528 54.582 8.89485C54.6778 8.98168 54.7818 9.05901 54.8926 9.12576C55.2874 9.36374 55.7803 9.40788 56.7661 9.49617C58.4348 9.64562 59.2692 9.72034 59.524 10.1961C59.5768 10.2946 59.6127 10.4013 59.6302 10.5117C59.7146 11.0447 59.1012 11.6028 57.8744 12.7189L57.5338 13.0288C56.9602 13.5506 56.6735 13.8115 56.5076 14.1372C56.4081 14.3325 56.3414 14.5428 56.3101 14.7598C56.258 15.1215 56.342 15.5 56.5099 16.2569L56.5699 16.5274C56.8711 17.8849 57.0217 18.5637 56.8337 18.8973C56.6649 19.197 56.3538 19.3889 56.0102 19.4053C55.6277 19.4236 55.0887 18.9844 54.0107 18.106C53.3005 17.5273 52.9454 17.2379 52.5512 17.1249C52.191 17.0216 51.8089 17.0216 51.4487 17.1249C51.0545 17.2379 50.6994 17.5273 49.9892 18.106C48.9112 18.9844 48.3722 19.4236 47.9897 19.4053C47.6461 19.3889 47.335 19.197 47.1662 18.8973C46.9782 18.5637 47.1288 17.8849 47.43 16.5274L47.49 16.2569C47.6579 15.5 47.7419 15.1215 47.6898 14.7598C47.6585 14.5428 47.5918 14.3325 47.4923 14.1372C47.3264 13.8115 47.0397 13.5506 46.4661 13.0288L46.1255 12.7189C44.8987 11.6028 44.2853 11.0447 44.3697 10.5117C44.3872 10.4013 44.4231 10.2946 44.4759 10.1961C44.7307 9.72034 45.5651 9.64562 47.2338 9.49617C48.2196 9.40788 48.7125 9.36374 49.1074 9.12576C49.2181 9.05901 49.3221 8.98168 49.4179 8.89485C49.7595 8.58528 49.9421 8.13014 50.3072 7.21986Z" fill="#3CA371" stroke="#3CA371" stroke-width="2"/>
<path d="M70.3072 7.21986C70.9493 5.61918 71.2704 4.81883 71.7919 4.70791C71.9291 4.67874 72.0708 4.67874 72.208 4.70791C72.7295 4.81883 73.0506 5.61918 73.6927 7.21986C74.0578 8.13014 74.2404 8.58528 74.582 8.89485C74.6778 8.98168 74.7818 9.05901 74.8926 9.12576C75.2874 9.36374 75.7803 9.40788 76.7661 9.49617C78.4348 9.64562 79.2692 9.72034 79.524 10.1961C79.5768 10.2946 79.6127 10.4013 79.6302 10.5117C79.7146 11.0447 79.1012 11.6028 77.8744 12.7189L77.5338 13.0288C76.9602 13.5506 76.6735 13.8115 76.5076 14.1372C76.4081 14.3325 76.3414 14.5428 76.3101 14.7598C76.258 15.1215 76.342 15.5 76.5099 16.2569L76.5699 16.5274C76.8711 17.8849 77.0217 18.5637 76.8337 18.8973C76.6649 19.197 76.3538 19.3889 76.0102 19.4053C75.6277 19.4236 75.0887 18.9844 74.0107 18.106C73.3005 17.5273 72.9454 17.2379 72.5512 17.1249C72.191 17.0216 71.8089 17.0216 71.4487 17.1249C71.0545 17.2379 70.6994 17.5273 69.9892 18.106C68.9112 18.9844 68.3722 19.4236 67.9897 19.4053C67.6461 19.3889 67.335 19.197 67.1662 18.8973C66.9782 18.5637 67.1288 17.8849 67.43 16.5274L67.49 16.2569C67.6579 15.5 67.7419 15.1215 67.6898 14.7598C67.6585 14.5428 67.5918 14.3325 67.4923 14.1372C67.3264 13.8115 67.0397 13.5506 66.4661 13.0288L66.1255 12.7189C64.8987 11.6028 64.2853 11.0447 64.3697 10.5117C64.3872 10.4013 64.4231 10.2946 64.4759 10.1961C64.7307 9.72034 65.5651 9.64562 67.2338 9.49617C68.2196 9.40788 68.7125 9.36374 69.1074 9.12576C69.2181 9.05901 69.3221 8.98168 69.4179 8.89485C69.7595 8.58528 69.9421 8.13014 70.3072 7.21986Z" fill="#3CA371" stroke="#3CA371" stroke-width="2"/>
<path d="M90.3072 7.21986C90.9493 5.61918 91.2704 4.81883 91.7919 4.70791C91.9291 4.67874 92.0708 4.67874 92.208 4.70791C92.7295 4.81883 93.0506 5.61918 93.6927 7.21986C94.0578 8.13014 94.2404 8.58528 94.582 8.89485C94.6778 8.98168 94.7818 9.05901 94.8926 9.12576C95.2874 9.36374 95.7803 9.40788 96.7661 9.49617C98.4348 9.64562 99.2692 9.72034 99.524 10.1961C99.5768 10.2946 99.6127 10.4013 99.6302 10.5117C99.7146 11.0447 99.1012 11.6028 97.8744 12.7189L97.5338 13.0288C96.9602 13.5506 96.6735 13.8115 96.5076 14.1372C96.4081 14.3325 96.3414 14.5428 96.3101 14.7598C96.258 15.1215 96.342 15.5 96.5099 16.2569L96.5699 16.5274C96.8711 17.8849 97.0217 18.5637 96.8337 18.8973C96.6649 19.197 96.3538 19.3889 96.0102 19.4053C95.6277 19.4236 95.0887 18.9844 94.0107 18.106C93.3005 17.5273 92.9454 17.2379 92.5512 17.1249C92.191 17.0216 91.8089 17.0216 91.4487 17.1249C91.0545 17.2379 90.6994 17.5273 89.9892 18.106C88.9112 18.9844 88.3722 19.4236 87.9897 19.4053C87.6461 19.3889 87.335 19.197 87.1662 18.8973C86.9782 18.5637 87.1288 17.8849 87.43 16.5274L87.49 16.2569C87.6579 15.5 87.7419 15.1215 87.6898 14.7598C87.6585 14.5428 87.5918 14.3325 87.4923 14.1372C87.3264 13.8115 87.0397 13.5506 86.4661 13.0288L86.1255 12.7189C84.8987 11.6028 84.2853 11.0447 84.3697 10.5117C84.3872 10.4013 84.4231 10.2946 84.4759 10.1961C84.7307 9.72034 85.5651 9.64562 87.2338 9.49617C88.2196 9.40788 88.7125 9.36374 89.1074 9.12576C89.2181 9.05901 89.3221 8.98168 89.4179 8.89485C89.7595 8.58528 89.9421 8.13014 90.3072 7.21986Z" fill="#3CA371" stroke="#3CA371" stroke-width="2"/>
</svg>
