<svg width="26" height="26" viewBox="0 0 26 26" fill="none" xmlns="http://www.w3.org/2000/svg">
<path d="M21.6667 5.41667C22.2651 5.41667 22.7501 4.93164 22.7501 4.33333C22.7501 3.73502 22.2651 3.25 21.6667 3.25V5.41667ZM5.95842 5.41667L21.6667 5.41667V3.25L5.95842 3.25L5.95842 5.41667ZM5.95842 10.8333H14.6251V8.66667H5.95842V10.8333ZM4.33342 7.04167C4.33342 6.1442 5.06096 5.41667 5.95842 5.41667L5.95842 3.25C3.86434 3.25 2.16676 4.94759 2.16676 7.04167L4.33342 7.04167ZM2.16676 7.04167C2.16676 9.13575 3.86434 10.8333 5.95842 10.8333V8.66667C5.06096 8.66667 4.33342 7.93913 4.33342 7.04167L2.16676 7.04167Z" fill="white"/>
<path d="M3.25 13L3.25 7.04167" stroke="white" stroke-width="2.16667"/>
<path d="M5.41699 23.292C4.92184 23.292 4.49567 23.2927 4.15625 23.2471C3.80118 23.1993 3.46064 23.0915 3.18457 22.8154C2.9085 22.5394 2.80067 22.1988 2.75293 21.8437C2.70735 21.5043 2.70801 21.0782 2.70801 20.583L2.70801 9.20801L20.583 9.20801C21.0782 9.20801 21.5043 9.20735 21.8438 9.25293C22.1988 9.30067 22.5394 9.4085 22.8154 9.68457C23.0915 9.96064 23.1993 10.3012 23.2471 10.6562C23.2927 10.9957 23.292 11.4218 23.292 11.917V13.542H19.5C18.0042 13.542 16.792 14.7542 16.792 16.25C16.792 17.7458 18.0042 18.958 19.5 18.958H23.292V20.583C23.292 21.0782 23.2927 21.5043 23.2471 21.8438C23.1993 22.1988 23.0915 22.5394 22.8154 22.8154C22.5394 23.0915 22.1988 23.1993 21.8438 23.2471C21.5043 23.2927 21.0782 23.292 20.583 23.292L5.41699 23.292Z" fill="white" stroke="white" stroke-width="1.08333"/>
</svg>
