<svg width="41" height="41" viewBox="0 0 41 41" fill="none" xmlns="http://www.w3.org/2000/svg">
<path d="M34.1667 8.54167C35.1102 8.54167 35.8751 7.77682 35.8751 6.83333C35.8751 5.88985 35.1102 5.125 34.1667 5.125V8.54167ZM9.39593 8.54167L34.1667 8.54167V5.125L9.39593 5.125V8.54167ZM9.39593 17.0833L23.0626 17.0833V13.6667L9.39593 13.6667V17.0833ZM6.83343 11.1042C6.83343 9.68894 7.9807 8.54167 9.39593 8.54167V5.125C6.09373 5.125 3.41676 7.80196 3.41676 11.1042L6.83343 11.1042ZM3.41676 11.1042C3.41676 14.4064 6.09373 17.0833 9.39593 17.0833V13.6667C7.9807 13.6667 6.83343 12.5194 6.83343 11.1042L3.41676 11.1042Z" fill="#3CA371"/>
<path d="M5.125 20.5L5.125 11.1042" stroke="#3CA371" stroke-width="3.41667"/>
<path d="M8.54199 36.7295C7.76101 36.7295 7.089 36.7311 6.55371 36.6592C5.99379 36.5839 5.45682 36.4139 5.02148 35.9785C4.58615 35.5432 4.4161 35.0062 4.34082 34.4463C4.2689 33.911 4.27051 33.239 4.27051 32.458L4.27051 14.5205L32.458 14.5205C33.239 14.5205 33.911 14.5189 34.4463 14.5908C35.0062 14.6661 35.5432 14.8361 35.9785 15.2715C36.4139 15.7068 36.5839 16.2438 36.6592 16.8037C36.7311 17.339 36.7295 18.011 36.7295 18.792V21.3545H30.75C28.3913 21.3545 26.4795 23.2663 26.4795 25.625C26.4795 27.9837 28.3913 29.8955 30.75 29.8955H36.7295V32.458C36.7295 33.239 36.7311 33.911 36.6592 34.4463C36.5839 35.0062 36.4139 35.5432 35.9785 35.9785C35.5432 36.4139 35.0062 36.5839 34.4463 36.6592C33.911 36.7311 33.239 36.7295 32.458 36.7295L8.54199 36.7295Z" fill="#3CA371" stroke="#3CA371" stroke-width="1.70833"/>
</svg>
